<mxfile host="app.diagrams.net" agent="Mozilla/5.0 (Macintosh; Intel Mac OS X 10_15_7) AppleWebKit/537.36 (KHTML, like Gecko) Chrome/131.0.0.0 Safari/537.36" border="50" scale="3" compressed="false" locked="false" version="25.0.3">
  <diagram name="Blank" id="YmL12bMKpDGza6XwsDPr">
    <mxGraphModel dx="954" dy="107" grid="0" gridSize="10" guides="1" tooltips="1" connect="1" arrows="1" fold="1" page="0" pageScale="1" pageWidth="827" pageHeight="1169" background="none" math="1" shadow="0">
      <root>
        <mxCell id="X5NqExCQtvZxIxQ7pmgY-0" />
        <mxCell id="1" parent="X5NqExCQtvZxIxQ7pmgY-0" />
        <mxCell id="T_83-huYaYTD7UsazCkl-28" value="Horizontal Tree Layout" style="swimlane;startSize=20;horizontal=0;childLayout=treeLayout;horizontalTree=1;sortEdges=1;resizable=0;containerType=tree;fontSize=12;" vertex="1" parent="1">
          <mxGeometry x="372" y="486" width="910" height="696" as="geometry" />
        </mxCell>
        <mxCell id="T_83-huYaYTD7UsazCkl-29" value="养鱼要点" style="whiteSpace=wrap;html=1;" vertex="1" parent="T_83-huYaYTD7UsazCkl-28">
          <mxGeometry x="40" y="360.2" width="100" height="40" as="geometry" />
        </mxCell>
        <mxCell id="T_83-huYaYTD7UsazCkl-30" value="过滤" style="whiteSpace=wrap;html=1;" vertex="1" parent="T_83-huYaYTD7UsazCkl-28">
          <mxGeometry x="190" y="194" width="100" height="40" as="geometry" />
        </mxCell>
        <mxCell id="T_83-huYaYTD7UsazCkl-31" value="" style="edgeStyle=elbowEdgeStyle;elbow=horizontal;html=1;rounded=1;curved=0;sourcePerimeterSpacing=0;targetPerimeterSpacing=0;startSize=6;endSize=6;" edge="1" parent="T_83-huYaYTD7UsazCkl-28" source="T_83-huYaYTD7UsazCkl-29" target="T_83-huYaYTD7UsazCkl-30">
          <mxGeometry relative="1" as="geometry" />
        </mxCell>
        <mxCell id="T_83-huYaYTD7UsazCkl-32" value="过滤装置" style="whiteSpace=wrap;html=1;" vertex="1" parent="T_83-huYaYTD7UsazCkl-28">
          <mxGeometry x="340" y="60" width="100" height="40" as="geometry" />
        </mxCell>
        <mxCell id="T_83-huYaYTD7UsazCkl-33" value="" style="edgeStyle=elbowEdgeStyle;elbow=horizontal;html=1;rounded=1;curved=0;sourcePerimeterSpacing=0;targetPerimeterSpacing=0;startSize=6;endSize=6;exitX=1;exitY=0.5;exitDx=0;exitDy=0;" edge="1" parent="T_83-huYaYTD7UsazCkl-28" source="T_83-huYaYTD7UsazCkl-30" target="T_83-huYaYTD7UsazCkl-32">
          <mxGeometry relative="1" as="geometry" />
        </mxCell>
        <mxCell id="T_83-huYaYTD7UsazCkl-34" value="" style="edgeStyle=elbowEdgeStyle;elbow=horizontal;html=1;rounded=1;curved=0;sourcePerimeterSpacing=0;targetPerimeterSpacing=0;startSize=6;endSize=6;exitX=1;exitY=0.5;exitDx=0;exitDy=0;entryX=0;entryY=0.5;entryDx=0;entryDy=0;" edge="1" target="T_83-huYaYTD7UsazCkl-35" source="T_83-huYaYTD7UsazCkl-79" parent="T_83-huYaYTD7UsazCkl-28">
          <mxGeometry relative="1" as="geometry">
            <mxPoint x="398" y="-2254.2000000000003" as="sourcePoint" />
          </mxGeometry>
        </mxCell>
        <mxCell id="T_83-huYaYTD7UsazCkl-35" value="物理过滤" style="whiteSpace=wrap;html=1;" vertex="1" parent="T_83-huYaYTD7UsazCkl-28">
          <mxGeometry x="490" y="180" width="100" height="40" as="geometry" />
        </mxCell>
        <mxCell id="T_83-huYaYTD7UsazCkl-36" value="" style="edgeStyle=elbowEdgeStyle;elbow=horizontal;html=1;rounded=1;curved=0;sourcePerimeterSpacing=0;targetPerimeterSpacing=0;startSize=6;endSize=6;exitX=1;exitY=0.5;exitDx=0;exitDy=0;entryX=0;entryY=0.5;entryDx=0;entryDy=0;" edge="1" target="T_83-huYaYTD7UsazCkl-37" source="T_83-huYaYTD7UsazCkl-79" parent="T_83-huYaYTD7UsazCkl-28">
          <mxGeometry relative="1" as="geometry">
            <mxPoint x="548" y="-2294.2000000000003" as="sourcePoint" />
          </mxGeometry>
        </mxCell>
        <mxCell id="T_83-huYaYTD7UsazCkl-37" value="生化过滤" style="whiteSpace=wrap;html=1;" vertex="1" parent="T_83-huYaYTD7UsazCkl-28">
          <mxGeometry x="490" y="476" width="100" height="40" as="geometry" />
        </mxCell>
        <mxCell id="T_83-huYaYTD7UsazCkl-38" value="" style="edgeStyle=elbowEdgeStyle;elbow=horizontal;html=1;rounded=1;curved=0;sourcePerimeterSpacing=0;targetPerimeterSpacing=0;startSize=6;endSize=6;" edge="1" target="T_83-huYaYTD7UsazCkl-39" source="T_83-huYaYTD7UsazCkl-35" parent="T_83-huYaYTD7UsazCkl-28">
          <mxGeometry relative="1" as="geometry">
            <mxPoint x="548" y="-2194.2" as="sourcePoint" />
          </mxGeometry>
        </mxCell>
        <mxCell id="T_83-huYaYTD7UsazCkl-39" value="过滤棉" style="whiteSpace=wrap;html=1;" vertex="1" parent="T_83-huYaYTD7UsazCkl-28">
          <mxGeometry x="640" y="180" width="100" height="40" as="geometry" />
        </mxCell>
        <mxCell id="T_83-huYaYTD7UsazCkl-40" value="" style="edgeStyle=elbowEdgeStyle;elbow=horizontal;html=1;rounded=1;curved=0;sourcePerimeterSpacing=0;targetPerimeterSpacing=0;startSize=6;endSize=6;" edge="1" target="T_83-huYaYTD7UsazCkl-41" source="T_83-huYaYTD7UsazCkl-37" parent="T_83-huYaYTD7UsazCkl-28">
          <mxGeometry relative="1" as="geometry">
            <mxPoint x="548" y="-2194.2" as="sourcePoint" />
          </mxGeometry>
        </mxCell>
        <mxCell id="T_83-huYaYTD7UsazCkl-41" value="滤材" style="whiteSpace=wrap;html=1;" vertex="1" parent="T_83-huYaYTD7UsazCkl-28">
          <mxGeometry x="640" y="356" width="100" height="40" as="geometry" />
        </mxCell>
        <mxCell id="T_83-huYaYTD7UsazCkl-42" value="" style="edgeStyle=elbowEdgeStyle;elbow=horizontal;html=1;rounded=1;curved=0;sourcePerimeterSpacing=0;targetPerimeterSpacing=0;startSize=6;endSize=6;" edge="1" target="T_83-huYaYTD7UsazCkl-43" source="T_83-huYaYTD7UsazCkl-41" parent="T_83-huYaYTD7UsazCkl-28">
          <mxGeometry relative="1" as="geometry">
            <mxPoint x="698" y="-2154.2" as="sourcePoint" />
          </mxGeometry>
        </mxCell>
        <mxCell id="T_83-huYaYTD7UsazCkl-43" value="中空石英球" style="whiteSpace=wrap;html=1;" vertex="1" parent="T_83-huYaYTD7UsazCkl-28">
          <mxGeometry x="790" y="236" width="100" height="40" as="geometry" />
        </mxCell>
        <mxCell id="T_83-huYaYTD7UsazCkl-50" value="" style="edgeStyle=elbowEdgeStyle;elbow=horizontal;html=1;rounded=1;curved=0;sourcePerimeterSpacing=0;targetPerimeterSpacing=0;startSize=6;endSize=6;" edge="1" target="T_83-huYaYTD7UsazCkl-51" source="T_83-huYaYTD7UsazCkl-41" parent="T_83-huYaYTD7UsazCkl-28">
          <mxGeometry relative="1" as="geometry">
            <mxPoint x="848" y="-2030.2000000000003" as="sourcePoint" />
          </mxGeometry>
        </mxCell>
        <mxCell id="T_83-huYaYTD7UsazCkl-51" value="火山石" style="whiteSpace=wrap;html=1;" vertex="1" parent="T_83-huYaYTD7UsazCkl-28">
          <mxGeometry x="790" y="316" width="100" height="40" as="geometry" />
        </mxCell>
        <mxCell id="T_83-huYaYTD7UsazCkl-52" value="" style="edgeStyle=elbowEdgeStyle;elbow=horizontal;html=1;rounded=1;curved=0;sourcePerimeterSpacing=0;targetPerimeterSpacing=0;startSize=6;endSize=6;" edge="1" target="T_83-huYaYTD7UsazCkl-53" source="T_83-huYaYTD7UsazCkl-41" parent="T_83-huYaYTD7UsazCkl-28">
          <mxGeometry relative="1" as="geometry">
            <mxPoint x="848" y="-1902.1999999999998" as="sourcePoint" />
          </mxGeometry>
        </mxCell>
        <mxCell id="T_83-huYaYTD7UsazCkl-53" value="珊瑚骨" style="whiteSpace=wrap;html=1;" vertex="1" parent="T_83-huYaYTD7UsazCkl-28">
          <mxGeometry x="790" y="396" width="100" height="40" as="geometry" />
        </mxCell>
        <mxCell id="T_83-huYaYTD7UsazCkl-54" value="" style="edgeStyle=elbowEdgeStyle;elbow=horizontal;html=1;rounded=1;curved=0;sourcePerimeterSpacing=0;targetPerimeterSpacing=0;startSize=6;endSize=6;" edge="1" target="T_83-huYaYTD7UsazCkl-55" source="T_83-huYaYTD7UsazCkl-41" parent="T_83-huYaYTD7UsazCkl-28">
          <mxGeometry relative="1" as="geometry">
            <mxPoint x="848" y="-1751.7999999999997" as="sourcePoint" />
          </mxGeometry>
        </mxCell>
        <mxCell id="T_83-huYaYTD7UsazCkl-55" value="细菌屋" style="whiteSpace=wrap;html=1;" vertex="1" parent="T_83-huYaYTD7UsazCkl-28">
          <mxGeometry x="790" y="476" width="100" height="40" as="geometry" />
        </mxCell>
        <mxCell id="T_83-huYaYTD7UsazCkl-62" value="" style="edgeStyle=elbowEdgeStyle;elbow=horizontal;html=1;rounded=1;curved=0;sourcePerimeterSpacing=0;targetPerimeterSpacing=0;startSize=6;endSize=6;exitX=1;exitY=0.5;exitDx=0;exitDy=0;" edge="1" target="T_83-huYaYTD7UsazCkl-63" source="T_83-huYaYTD7UsazCkl-37" parent="T_83-huYaYTD7UsazCkl-28">
          <mxGeometry relative="1" as="geometry">
            <mxPoint x="698" y="-1579" as="sourcePoint" />
          </mxGeometry>
        </mxCell>
        <mxCell id="T_83-huYaYTD7UsazCkl-63" value="提供硝化细菌环境" style="whiteSpace=wrap;html=1;" vertex="1" parent="T_83-huYaYTD7UsazCkl-28">
          <mxGeometry x="640" y="596" width="100" height="40" as="geometry" />
        </mxCell>
        <mxCell id="T_83-huYaYTD7UsazCkl-66" value="" style="edgeStyle=elbowEdgeStyle;elbow=horizontal;html=1;rounded=1;curved=0;sourcePerimeterSpacing=0;targetPerimeterSpacing=0;startSize=6;endSize=6;exitX=0.5;exitY=1;exitDx=0;exitDy=0;" edge="1" target="T_83-huYaYTD7UsazCkl-67" source="T_83-huYaYTD7UsazCkl-63" parent="T_83-huYaYTD7UsazCkl-28">
          <mxGeometry relative="1" as="geometry">
            <mxPoint x="798" y="-921.4" as="sourcePoint" />
          </mxGeometry>
        </mxCell>
        <mxCell id="T_83-huYaYTD7UsazCkl-67" value="建立硝化系统" style="whiteSpace=wrap;html=1;" vertex="1" parent="T_83-huYaYTD7UsazCkl-28">
          <mxGeometry x="790" y="556" width="100" height="40" as="geometry" />
        </mxCell>
        <mxCell id="T_83-huYaYTD7UsazCkl-68" value="" style="edgeStyle=elbowEdgeStyle;elbow=horizontal;html=1;rounded=1;curved=0;sourcePerimeterSpacing=0;targetPerimeterSpacing=0;startSize=6;endSize=6;exitX=0.5;exitY=1;exitDx=0;exitDy=0;" edge="1" target="T_83-huYaYTD7UsazCkl-69" source="T_83-huYaYTD7UsazCkl-63" parent="T_83-huYaYTD7UsazCkl-28">
          <mxGeometry relative="1" as="geometry">
            <mxPoint x="798" y="-931.0000000000001" as="sourcePoint" />
          </mxGeometry>
        </mxCell>
        <mxCell id="T_83-huYaYTD7UsazCkl-69" value="分解鱼粪的氨，净化水质" style="whiteSpace=wrap;html=1;" vertex="1" parent="T_83-huYaYTD7UsazCkl-28">
          <mxGeometry x="790" y="636" width="100" height="40" as="geometry" />
        </mxCell>
        <mxCell id="T_83-huYaYTD7UsazCkl-74" value="" style="edgeStyle=elbowEdgeStyle;elbow=horizontal;html=1;rounded=1;curved=0;sourcePerimeterSpacing=0;targetPerimeterSpacing=0;startSize=6;endSize=6;exitX=1;exitY=0.5;exitDx=0;exitDy=0;flowAnimation=0;" edge="1" target="T_83-huYaYTD7UsazCkl-75" source="T_83-huYaYTD7UsazCkl-32" parent="T_83-huYaYTD7UsazCkl-28">
          <mxGeometry relative="1" as="geometry">
            <mxPoint x="442" y="-159.60000000000002" as="sourcePoint" />
          </mxGeometry>
        </mxCell>
        <mxCell id="T_83-huYaYTD7UsazCkl-75" value="周转箱" style="whiteSpace=wrap;html=1;" vertex="1" parent="T_83-huYaYTD7UsazCkl-28">
          <mxGeometry x="490" y="20" width="100" height="40" as="geometry" />
        </mxCell>
        <mxCell id="T_83-huYaYTD7UsazCkl-76" value="" style="edgeStyle=elbowEdgeStyle;elbow=horizontal;html=1;rounded=1;curved=0;sourcePerimeterSpacing=0;targetPerimeterSpacing=0;startSize=6;endSize=6;exitX=1;exitY=0.5;exitDx=0;exitDy=0;entryX=0;entryY=0.5;entryDx=0;entryDy=0;flowAnimation=0;" edge="1" target="T_83-huYaYTD7UsazCkl-77" source="T_83-huYaYTD7UsazCkl-32" parent="T_83-huYaYTD7UsazCkl-28">
          <mxGeometry relative="1" as="geometry">
            <mxPoint x="498" y="-633.0000000000001" as="sourcePoint" />
            <Array as="points">
              <mxPoint x="464" y="83.39999999999998" />
            </Array>
          </mxGeometry>
        </mxCell>
        <mxCell id="T_83-huYaYTD7UsazCkl-77" value="水泵" style="whiteSpace=wrap;html=1;" vertex="1" parent="T_83-huYaYTD7UsazCkl-28">
          <mxGeometry x="490" y="100" width="100" height="40" as="geometry" />
        </mxCell>
        <mxCell id="T_83-huYaYTD7UsazCkl-78" value="" style="edgeStyle=elbowEdgeStyle;elbow=horizontal;html=1;rounded=1;curved=0;sourcePerimeterSpacing=0;targetPerimeterSpacing=0;startSize=6;endSize=6;" edge="1" target="T_83-huYaYTD7UsazCkl-79" source="T_83-huYaYTD7UsazCkl-30" parent="T_83-huYaYTD7UsazCkl-28">
          <mxGeometry relative="1" as="geometry">
            <mxPoint x="398" y="-442.60000000000014" as="sourcePoint" />
          </mxGeometry>
        </mxCell>
        <mxCell id="T_83-huYaYTD7UsazCkl-79" value="过滤系统" style="whiteSpace=wrap;html=1;" vertex="1" parent="T_83-huYaYTD7UsazCkl-28">
          <mxGeometry x="340" y="328" width="100" height="40" as="geometry" />
        </mxCell>
        <mxCell id="T_83-huYaYTD7UsazCkl-94" value="" style="edgeStyle=elbowEdgeStyle;elbow=horizontal;html=1;rounded=1;curved=0;sourcePerimeterSpacing=0;targetPerimeterSpacing=0;startSize=6;endSize=6;" edge="1" target="T_83-huYaYTD7UsazCkl-95" source="T_83-huYaYTD7UsazCkl-29" parent="T_83-huYaYTD7UsazCkl-28">
          <mxGeometry relative="1" as="geometry">
            <mxPoint x="512" y="598.6" as="sourcePoint" />
          </mxGeometry>
        </mxCell>
        <mxCell id="T_83-huYaYTD7UsazCkl-95" value="增氧" style="whiteSpace=wrap;html=1;" vertex="1" parent="T_83-huYaYTD7UsazCkl-28">
          <mxGeometry x="190" y="526.4" width="100" height="40" as="geometry" />
        </mxCell>
        <mxCell id="T_83-huYaYTD7UsazCkl-96" value="" style="edgeStyle=elbowEdgeStyle;elbow=horizontal;html=1;rounded=1;curved=0;sourcePerimeterSpacing=0;targetPerimeterSpacing=0;startSize=6;endSize=6;" edge="1" target="T_83-huYaYTD7UsazCkl-97" source="T_83-huYaYTD7UsazCkl-95" parent="T_83-huYaYTD7UsazCkl-28">
          <mxGeometry relative="1" as="geometry">
            <mxPoint x="512" y="866.4" as="sourcePoint" />
          </mxGeometry>
        </mxCell>
        <mxCell id="T_83-huYaYTD7UsazCkl-97" value="增氧泵" style="whiteSpace=wrap;html=1;" vertex="1" parent="T_83-huYaYTD7UsazCkl-28">
          <mxGeometry x="340" y="526.4" width="100" height="40" as="geometry" />
        </mxCell>
      </root>
    </mxGraphModel>
  </diagram>
</mxfile>
